<mxfile host="app.diagrams.net" modified="2021-08-19T14:29:58.564Z" agent="5.0 (Windows NT 10.0; Win64; x64) AppleWebKit/537.36 (KHTML, like Gecko) Chrome/92.0.4515.131 Safari/537.36" etag="vYV2aV6vqJm151ml5REV" version="14.9.6" type="github">
  <diagram id="e_GjIW62b-9_NgmLpTDM" name="Page-1">
    <mxGraphModel dx="1848" dy="567" grid="1" gridSize="10" guides="1" tooltips="1" connect="1" arrows="1" fold="1" page="1" pageScale="1" pageWidth="827" pageHeight="1169" background="#114B5F" math="0" shadow="0">
      <root>
        <mxCell id="0" />
        <mxCell id="1" parent="0" />
        <mxCell id="rRYqMlunE34TTQPCxK1C-10" value="" style="html=1;points=[];perimeter=orthogonalPerimeter;fontStyle=0;fillColor=#a20025;strokeColor=#6F0000;fontColor=#ffffff;" parent="1" vertex="1">
          <mxGeometry x="110" y="70" width="10" height="480" as="geometry" />
        </mxCell>
        <mxCell id="rRYqMlunE34TTQPCxK1C-11" value="mensaje y csv de telefonos" style="html=1;verticalAlign=bottom;startArrow=oval;endArrow=block;startSize=8;fontColor=#E4FDE1;labelBackgroundColor=#114B5F;fontStyle=0;fillColor=#a20025;strokeColor=#6F0000;" parent="1" target="rRYqMlunE34TTQPCxK1C-10" edge="1">
          <mxGeometry x="-0.0769" y="-20" relative="1" as="geometry">
            <mxPoint x="10" y="70" as="sourcePoint" />
            <mxPoint as="offset" />
          </mxGeometry>
        </mxCell>
        <mxCell id="rRYqMlunE34TTQPCxK1C-13" value="API" style="text;html=1;align=center;verticalAlign=middle;resizable=0;points=[];autosize=1;fontStyle=0;fillColor=#a20025;strokeColor=#6F0000;fontColor=#ffffff;" parent="1" vertex="1">
          <mxGeometry x="270" y="30" width="30" height="20" as="geometry" />
        </mxCell>
        <mxCell id="rRYqMlunE34TTQPCxK1C-14" value="Front" style="text;html=1;align=center;verticalAlign=middle;resizable=0;points=[];autosize=1;fontStyle=0;fillColor=#a20025;strokeColor=#6F0000;fontColor=#ffffff;" parent="1" vertex="1">
          <mxGeometry x="60" y="30" width="40" height="20" as="geometry" />
        </mxCell>
        <mxCell id="rRYqMlunE34TTQPCxK1C-15" value="" style="html=1;points=[];perimeter=orthogonalPerimeter;fontStyle=0;fillColor=#a20025;strokeColor=#6F0000;fontColor=#ffffff;" parent="1" vertex="1">
          <mxGeometry x="280" y="70" width="10" height="480" as="geometry" />
        </mxCell>
        <mxCell id="rRYqMlunE34TTQPCxK1C-17" value="receiver" style="text;html=1;align=center;verticalAlign=middle;resizable=0;points=[];autosize=1;fontStyle=0;fillColor=#a20025;strokeColor=#6F0000;fontColor=#ffffff;" parent="1" vertex="1">
          <mxGeometry x="450" y="30" width="60" height="20" as="geometry" />
        </mxCell>
        <mxCell id="rRYqMlunE34TTQPCxK1C-18" value="" style="html=1;points=[];perimeter=orthogonalPerimeter;fontStyle=0;fillColor=#a20025;strokeColor=#6F0000;fontColor=#ffffff;" parent="1" vertex="1">
          <mxGeometry x="475" y="70" width="10" height="480" as="geometry" />
        </mxCell>
        <mxCell id="rRYqMlunE34TTQPCxK1C-20" value="/enviar" style="html=1;verticalAlign=bottom;endArrow=block;fontColor=#E4FDE1;labelBackgroundColor=#114B5F;fontStyle=0;fillColor=#a20025;strokeColor=#6F0000;" parent="1" edge="1">
          <mxGeometry width="80" relative="1" as="geometry">
            <mxPoint x="118" y="120" as="sourcePoint" />
            <mxPoint x="279" y="120" as="targetPoint" />
          </mxGeometry>
        </mxCell>
        <mxCell id="rRYqMlunE34TTQPCxK1C-26" value="separar los telefonos&lt;br&gt;y agrega el +549 mÃ¡s&lt;br&gt;el @c.us para&amp;nbsp;enviar&lt;br&gt;&amp;nbsp;los mismos al rabbit&lt;br&gt;&amp;nbsp;como tareas a realizar" style="edgeStyle=orthogonalEdgeStyle;html=1;align=left;spacingLeft=2;endArrow=block;entryX=1;entryY=0;fontColor=#E4FDE1;labelBackgroundColor=#114B5F;fontStyle=0;fillColor=#a20025;strokeColor=#6F0000;" parent="1" edge="1">
          <mxGeometry x="-0.0596" relative="1" as="geometry">
            <mxPoint x="290" y="149" as="sourcePoint" />
            <Array as="points">
              <mxPoint x="340" y="149" />
              <mxPoint x="340" y="200" />
            </Array>
            <mxPoint x="290" y="200" as="targetPoint" />
            <mxPoint as="offset" />
          </mxGeometry>
        </mxCell>
        <mxCell id="rRYqMlunE34TTQPCxK1C-27" value="publish&lt;br&gt;" style="html=1;verticalAlign=bottom;endArrow=block;fontColor=#E4FDE1;labelBackgroundColor=#114B5F;fontStyle=0;fillColor=#a20025;strokeColor=#6F0000;entryX=-0.012;entryY=0.482;entryDx=0;entryDy=0;entryPerimeter=0;" parent="1" edge="1" target="rRYqMlunE34TTQPCxK1C-18">
          <mxGeometry width="80" relative="1" as="geometry">
            <mxPoint x="290" y="301" as="sourcePoint" />
            <mxPoint x="470" y="240" as="targetPoint" />
            <Array as="points">
              <mxPoint x="350" y="301" />
              <mxPoint x="400" y="301" />
            </Array>
          </mxGeometry>
        </mxCell>
        <mxCell id="rRYqMlunE34TTQPCxK1C-29" value="" style="strokeWidth=2;html=1;shape=mxgraph.flowchart.annotation_2;align=left;labelPosition=right;pointerEvents=1;fontStyle=0;fillColor=#a20025;strokeColor=#6F0000;fontColor=#ffffff;" parent="1" vertex="1">
          <mxGeometry x="230" y="280" width="50" height="180" as="geometry" />
        </mxCell>
        <mxCell id="rRYqMlunE34TTQPCxK1C-30" value="cola de rabbit" style="text;html=1;align=center;verticalAlign=middle;resizable=0;points=[];autosize=1;fontStyle=0;fillColor=#a20025;strokeColor=#6F0000;fontColor=#ffffff;" parent="1" vertex="1">
          <mxGeometry x="140" y="310" width="90" height="20" as="geometry" />
        </mxCell>
        <mxCell id="rRYqMlunE34TTQPCxK1C-33" value="" style="html=1;points=[];perimeter=orthogonalPerimeter;fontStyle=0;fillColor=#a20025;strokeColor=#6F0000;fontColor=#ffffff;" parent="1" vertex="1">
          <mxGeometry x="630" y="70" width="10" height="480" as="geometry" />
        </mxCell>
        <mxCell id="rRYqMlunE34TTQPCxK1C-35" value="/wa/sendmessage" style="html=1;verticalAlign=bottom;endArrow=block;fontColor=#E4FDE1;labelBackgroundColor=#114B5F;fontStyle=0;fillColor=#a20025;strokeColor=#6F0000;exitX=1.518;exitY=0.55;exitDx=0;exitDy=0;exitPerimeter=0;" parent="1" edge="1" source="rRYqMlunE34TTQPCxK1C-18">
          <mxGeometry width="80" relative="1" as="geometry">
            <mxPoint x="485" y="260" as="sourcePoint" />
            <mxPoint x="629" y="334" as="targetPoint" />
          </mxGeometry>
        </mxCell>
        <mxCell id="rRYqMlunE34TTQPCxK1C-36" value="wa_server" style="text;html=1;align=center;verticalAlign=middle;resizable=0;points=[];autosize=1;fontStyle=0;fillColor=#a20025;strokeColor=#6F0000;fontColor=#ffffff;" parent="1" vertex="1">
          <mxGeometry x="600" y="30" width="70" height="20" as="geometry" />
        </mxCell>
        <mxCell id="rRYqMlunE34TTQPCxK1C-38" value="se llama a sendText&lt;br&gt;con el numero y el mensaje&lt;br&gt;para enviarlo" style="edgeStyle=orthogonalEdgeStyle;html=1;align=left;spacingLeft=2;endArrow=block;fontColor=#E4FDE1;labelBackgroundColor=#114B5F;fontStyle=0;fillColor=#a20025;strokeColor=#6F0000;" parent="1" edge="1">
          <mxGeometry x="0.0802" relative="1" as="geometry">
            <mxPoint x="650" y="360" as="sourcePoint" />
            <Array as="points">
              <mxPoint x="640" y="360" />
              <mxPoint x="670" y="360" />
              <mxPoint x="670" y="440" />
            </Array>
            <mxPoint x="642" y="440" as="targetPoint" />
            <mxPoint as="offset" />
          </mxGeometry>
        </mxCell>
        <mxCell id="rRYqMlunE34TTQPCxK1C-39" value="200/202" style="html=1;verticalAlign=bottom;endArrow=open;dashed=1;endSize=8;fontColor=#E4FDE1;labelBackgroundColor=#114B5F;fontStyle=0;fillColor=#a20025;strokeColor=#6F0000;exitX=-0.218;exitY=0.808;exitDx=0;exitDy=0;exitPerimeter=0;" parent="1" edge="1" source="rRYqMlunE34TTQPCxK1C-33">
          <mxGeometry relative="1" as="geometry">
            <mxPoint x="630" y="380" as="sourcePoint" />
            <mxPoint x="480" y="460" as="targetPoint" />
            <mxPoint as="offset" />
          </mxGeometry>
        </mxCell>
        <mxCell id="rRYqMlunE34TTQPCxK1C-40" value="ack/nack" style="html=1;verticalAlign=bottom;endArrow=open;dashed=1;endSize=8;fontColor=#E4FDE1;labelBackgroundColor=#114B5F;fontStyle=0;fillColor=#a20025;strokeColor=#6F0000;" parent="1" edge="1">
          <mxGeometry x="0.0058" y="2" relative="1" as="geometry">
            <mxPoint x="470" y="483" as="sourcePoint" />
            <mxPoint x="291" y="483" as="targetPoint" />
            <Array as="points" />
            <mxPoint as="offset" />
          </mxGeometry>
        </mxCell>
        <mxCell id="rRYqMlunE34TTQPCxK1C-41" value="200" style="html=1;verticalAlign=bottom;endArrow=open;dashed=1;endSize=8;fontColor=#E4FDE1;labelBackgroundColor=#114B5F;fontStyle=0;fillColor=#a20025;strokeColor=#6F0000;" parent="1" edge="1">
          <mxGeometry relative="1" as="geometry">
            <mxPoint x="270" y="510" as="sourcePoint" />
            <mxPoint x="121" y="510" as="targetPoint" />
          </mxGeometry>
        </mxCell>
        <mxCell id="rRYqMlunE34TTQPCxK1C-42" value="&quot;ta todo bien&quot;&lt;br&gt;" style="html=1;verticalAlign=bottom;endArrow=open;dashed=1;endSize=8;fontColor=#E4FDE1;labelBackgroundColor=#114B5F;fontStyle=0;fillColor=#a20025;strokeColor=#6F0000;exitX=0;exitY=0.978;exitDx=0;exitDy=0;exitPerimeter=0;" parent="1" edge="1" source="rRYqMlunE34TTQPCxK1C-10">
          <mxGeometry relative="1" as="geometry">
            <mxPoint x="110" y="430" as="sourcePoint" />
            <mxPoint x="10" y="539" as="targetPoint" />
          </mxGeometry>
        </mxCell>
        <mxCell id="vmRkT-IFG5H0dKgP35je-5" value="Actor" style="shape=umlActor;verticalLabelPosition=bottom;verticalAlign=top;html=1;fillColor=#F45B69;strokeColor=#028090;fontColor=#E4FDE1;" vertex="1" parent="1">
          <mxGeometry x="-40" y="40" width="30" height="60" as="geometry" />
        </mxCell>
        <mxCell id="vmRkT-IFG5H0dKgP35je-7" value="[if nack]" style="text;html=1;align=center;verticalAlign=middle;resizable=0;points=[];autosize=1;strokeColor=#6F0000;fontColor=#ffffff;fillColor=#a20025;" vertex="1" parent="1">
          <mxGeometry x="300" y="370" width="60" height="20" as="geometry" />
        </mxCell>
        <mxCell id="vmRkT-IFG5H0dKgP35je-16" value="numero y mensaje" style="text;html=1;align=center;verticalAlign=middle;resizable=0;points=[];autosize=1;strokeColor=none;fontColor=#FFFFFF;" vertex="1" parent="1">
          <mxGeometry x="325" y="300" width="110" height="20" as="geometry" />
        </mxCell>
        <mxCell id="vmRkT-IFG5H0dKgP35je-17" value="arreglo de numero &lt;br&gt;y el mensaje" style="text;html=1;align=center;verticalAlign=middle;resizable=0;points=[];autosize=1;strokeColor=none;fontColor=#FFFFFF;" vertex="1" parent="1">
          <mxGeometry x="140" y="120" width="110" height="30" as="geometry" />
        </mxCell>
        <mxCell id="vmRkT-IFG5H0dKgP35je-18" value="wa/contactos" style="html=1;verticalAlign=bottom;endArrow=block;labelBackgroundColor=none;fontColor=#FFFFFF;strokeColor=#6F0000;fillColor=#F45B69;" edge="1" parent="1">
          <mxGeometry x="-0.4151" y="-2" width="80" relative="1" as="geometry">
            <mxPoint x="290" y="230" as="sourcePoint" />
            <mxPoint x="620" y="230" as="targetPoint" />
            <mxPoint as="offset" />
          </mxGeometry>
        </mxCell>
        <mxCell id="vmRkT-IFG5H0dKgP35je-19" value="numero de telefono" style="text;html=1;align=center;verticalAlign=middle;resizable=0;points=[];autosize=1;strokeColor=none;fontColor=#FFFFFF;" vertex="1" parent="1">
          <mxGeometry x="330" y="230" width="120" height="20" as="geometry" />
        </mxCell>
        <mxCell id="vmRkT-IFG5H0dKgP35je-20" value="200" style="html=1;verticalAlign=bottom;endArrow=open;dashed=1;endSize=8;labelBackgroundColor=none;fontColor=#FFFFFF;strokeColor=#6F0000;fillColor=#F45B69;" edge="1" parent="1" target="rRYqMlunE34TTQPCxK1C-15">
          <mxGeometry x="-0.4706" relative="1" as="geometry">
            <mxPoint x="630" y="260" as="sourcePoint" />
            <mxPoint x="550" y="260" as="targetPoint" />
            <mxPoint x="-1" as="offset" />
          </mxGeometry>
        </mxCell>
      </root>
    </mxGraphModel>
  </diagram>
</mxfile>
